{
  "accessors": [
    {
      "bufferView": 2,
      "componentType": 5126,
      "count": 65532,
      "max": [
        2.8148927688598633,
        39.91750717163086,
        56.19145965576172
      ],
      "min": [
        -2.7490735054016113,
        -0.9021844267845154,
        -1.7678587436676025
      ],
      "type": "VEC3"
    },
    {
      "bufferView": 2,
      "byteOffset": 786384,
      "componentType": 5126,
      "count": 65532,
      "max": [
        1.0,
        1.0,
        0.9999999403953552
      ],
      "min": [
        -1.0,
        -1.0,
        -0.9999850392341614
      ],
      "type": "VEC3"
    },
    {
      "bufferView": 3,
      "componentType": 5126,
      "count": 65532,
      "max": [
        1.0,
        1.0,
        1.0,
        1.0
      ],
      "min": [
        -1.0,
        -1.0,
        -1.0,
        -1.0
      ],
      "type": "VEC4"
    },
    {
      "bufferView": 1,
      "componentType": 5126,
      "count": 65532,
      "max": [
        0.9901389479637146,
        0.9905081987380981
      ],
      "min": [
        0.009861179627478123,
        0.00949191302061081
      ],
      "type": "VEC2"
    },
    {
      "bufferView": 0,
      "componentType": 5125,
      "count": 349587,
      "type": "SCALAR"
    },
    {
      "bufferView": 2,
      "byteOffset": 1572768,
      "componentType": 5126,
      "count": 65532,
      "max": [
        0.0017092024208977818,
        3.2022294998168945,
        40.30567932128906
      ],
      "min": [
        -0.1601984202861786,
        0.5296783447265625,
        37.64516830444336
      ],
      "type": "VEC3"
    },
    {
      "bufferView": 2,
      "byteOffset": 2359152,
      "componentType": 5126,
      "count": 65532,
      "max": [
        0.9999971985816956,
        1.0,
        1.0
      ],
      "min": [
        -0.9999971985816956,
        -1.0,
        -0.9999999403953552
      ],
      "type": "VEC3"
    },
    {
      "bufferView": 3,
      "byteOffset": 1048512,
      "componentType": 5126,
      "count": 65532,
      "max": [
        1.0,
        0.9998126029968262,
        0.9986433386802673,
        1.0
      ],
      "min": [
        -1.0,
        -0.9996543526649475,
        -0.9629577994346619,
        -1.0
      ],
      "type": "VEC4"
    },
    {
      "bufferView": 1,
      "byteOffset": 524256,
      "componentType": 5126,
      "count": 65532,
      "max": [
        0.9869609475135803,
        0.9481241106987
      ],
      "min": [
        0.009861179627478123,
        0.09156887978315353
      ],
      "type": "VEC2"
    },
    {
      "bufferView": 0,
      "byteOffset": 1398348,
      "componentType": 5125,
      "count": 365454,
      "type": "SCALAR"
    },
    {
      "bufferView": 2,
      "byteOffset": 3145536,
      "componentType": 5126,
      "count": 65532,
      "max": [
        0.0017092024208977818,
        15.30941390991211,
        53.51210021972656
      ],
      "min": [
        -0.1601984202861786,
        0.5296783447265625,
        37.6391487121582
      ],
      "type": "VEC3"
    },
    {
      "bufferView": 2,
      "byteOffset": 3931920,
      "componentType": 5126,
      "count": 65532,
      "max": [
        0.9999971985816956,
        1.0,
        0.9999999403953552
      ],
      "min": [
        -0.9999971985816956,
        -1.0,
        -1.0
      ],
      "type": "VEC3"
    },
    {
      "bufferView": 3,
      "byteOffset": 2097024,
      "componentType": 5126,
      "count": 65532,
      "max": [
        1.0,
        0.9998126029968262,
        0.978965699672699,
        1.0
      ],
      "min": [
        -1.0,
        -0.9991106986999512,
        -0.970922589302063,
        -1.0
      ],
      "type": "VEC4"
    },
    {
      "bufferView": 1,
      "byteOffset": 1048512,
      "componentType": 5126,
      "count": 65532,
      "max": [
        0.9871808290481567,
        0.9481217265129089
      ],
      "min": [
        0.01576521433889866,
        0.08767665177583694
      ],
      "type": "VEC2"
    },
    {
      "bufferView": 0,
      "byteOffset": 2860164,
      "componentType": 5125,
      "count": 362949,
      "type": "SCALAR"
    },
    {
      "bufferView": 2,
      "byteOffset": 4718304,
      "componentType": 5126,
      "count": 65532,
      "max": [
        0.17843502759933472,
        15.244592666625977,
        53.45014190673828
      ],
      "min": [
        -0.6710836887359619,
        0.5455880165100098,
        40.1839485168457
      ],
      "type": "VEC3"
    },
    {
      "bufferView": 2,
      "byteOffset": 5504688,
      "componentType": 5126,
      "count": 65532,
      "max": [
        0.9999971985816956,
        1.0,
        1.0
      ],
      "min": [
        -0.9999971985816956,
        -1.0,
        -1.0
      ],
      "type": "VEC3"
    },
    {
      "bufferView": 3,
      "byteOffset": 3145536,
      "componentType": 5126,
      "count": 65532,
      "max": [
        1.0,
        0.999790370464325,
        0.9978435635566711,
        1.0
      ],
      "min": [
        -1.0,
        -0.9996453523635864,
        -0.9843512177467346,
        -1.0
      ],
      "type": "VEC4"
    },
    {
      "bufferView": 1,
      "byteOffset": 1572768,
      "componentType": 5126,
      "count": 65532,
      "max": [
        0.9862388968467712,
        0.9492188096046448
      ],
      "min": [
        0.011442123912274837,
        0.1616651564836502
      ],
      "type": "VEC2"
    },
    {
      "bufferView": 0,
      "byteOffset": 4311960,
      "componentType": 5125,
      "count": 357858,
      "type": "SCALAR"
    },
    {
      "bufferView": 2,
      "byteOffset": 6291072,
      "componentType": 5126,
      "count": 65532,
      "max": [
        1.6872403621673584,
        40.18849182128906,
        55.876983642578125
      ],
      "min": [
        -2.088588237762451,
        -0.9304123520851135,
        -2.365063428878784
      ],
      "type": "VEC3"
    },
    {
      "bufferView": 2,
      "byteOffset": 7077456,
      "componentType": 5126,
      "count": 65532,
      "max": [
        0.9999991059303284,
        1.0,
        1.0
      ],
      "min": [
        -0.9999991059303284,
        -1.0,
        -1.0
      ],
      "type": "VEC3"
    },
    {
      "bufferView": 3,
      "byteOffset": 4194048,
      "componentType": 5126,
      "count": 65532,
      "max": [
        1.0,
        0.9999315142631531,
        0.9999678730964661,
        1.0
      ],
      "min": [
        -0.9999997615814209,
        -1.0,
        -0.9999396800994873,
        -1.0
      ],
      "type": "VEC4"
    },
    {
      "bufferView": 1,
      "byteOffset": 2097024,
      "componentType": 5126,
      "count": 65532,
      "max": [
        0.9867776036262512,
        0.9665588736534119
      ],
      "min": [
        0.08051446080207825,
        0.00949191302061081
      ],
      "type": "VEC2"
    },
    {
      "bufferView": 0,
      "byteOffset": 5743392,
      "componentType": 5125,
      "count": 356847,
      "type": "SCALAR"
    },
    {
      "bufferView": 2,
      "byteOffset": 7863840,
      "componentType": 5126,
      "count": 65532,
      "max": [
        0.8587876558303833,
        28.158096313476563,
        55.8792610168457
      ],
      "min": [
        -0.7389030456542969,
        0.37673747539520264,
        26.52524185180664
      ],
      "type": "VEC3"
    },
    {
      "bufferView": 2,
      "byteOffset": 8650224,
      "componentType": 5126,
      "count": 65532,
      "max": [
        0.9984657168388367,
        1.0,
        1.0
      ],
      "min": [
        -1.0,
        -1.0,
        -1.0
      ],
      "type": "VEC3"
    },
    {
      "bufferView": 3,
      "byteOffset": 5242560,
      "componentType": 5126,
      "count": 65532,
      "max": [
        1.0,
        0.9999481439590454,
        0.9954168796539307,
        1.0
      ],
      "min": [
        -1.0,
        -0.9997828006744385,
        -0.9999695420265198,
        -1.0
      ],
      "type": "VEC4"
    },
    {
      "bufferView": 1,
      "byteOffset": 2621280,
      "componentType": 5126,
      "count": 65532,
      "max": [
        0.9851261377334595,
        0.9490880966186523
      ],
      "min": [
        0.009861179627478123,
        0.00949191302061081
      ],
      "type": "VEC2"
    },
    {
      "bufferView": 0,
      "byteOffset": 7170780,
      "componentType": 5125,
      "count": 357429,
      "type": "SCALAR"
    },
    {
      "bufferView": 2,
      "byteOffset": 9436608,
      "componentType": 5126,
      "count": 54291,
      "max": [
        0.05329315736889839,
        15.241595268249512,
        53.51811981201172
      ],
      "min": [
        -0.20825578272342682,
        8.452824592590332,
        48.83903121948242
      ],
      "type": "VEC3"
    },
    {
      "bufferView": 2,
      "byteOffset": 10088100,
      "componentType": 5126,
      "count": 54291,
      "max": [
        0.9999971985816956,
        1.0,
        1.0
      ],
      "min": [
        -0.9674018621444702,
        -1.0,
        -1.0
      ],
      "type": "VEC3"
    },
    {
      "bufferView": 3,
      "byteOffset": 6291072,
      "componentType": 5126,
      "count": 54291,
      "max": [
        1.0,
        0.9998119473457336,
        0.9760929346084595,
        1.0
      ],
      "min": [
        -1.0,
        -0.9991073608398438,
        -0.9702553153038025,
        -1.0
      ],
      "type": "VEC4"
    },
    {
      "bufferView": 1,
      "byteOffset": 3145536,
      "componentType": 5126,
      "count": 54291,
      "max": [
        0.9871808290481567,
        0.9393625259399414
      ],
      "min": [
        0.05467268079519272,
        0.00949191302061081
      ],
      "type": "VEC2"
    },
    {
      "bufferView": 0,
      "byteOffset": 8600496,
      "componentType": 5125,
      "count": 298836,
      "type": "SCALAR"
    }
  ],
  "asset": {
    "extras": {
      "author": "alex.andain.777 (https://sketchfab.com/alex.andain.777)",
      "license": "CC-BY-4.0 (http://creativecommons.org/licenses/by/4.0/)",
      "source": "https://sketchfab.com/3d-models/street-lamp-57492e70ae344c188c0678840c1326d8",
      "title": "Street Lamp"
    },
    "generator": "Sketchfab-15.40.0",
    "version": "2.0"
  },
  "bufferViews": [
    {
      "buffer": 0,
      "byteLength": 9795840,
      "name": "floatBufferViews",
      "target": 34963
    },
    {
      "buffer": 0,
      "byteLength": 3579864,
      "byteOffset": 9795840,
      "byteStride": 8,
      "name": "floatBufferViews",
      "target": 34962
    },
    {
      "buffer": 0,
      "byteLength": 10739592,
      "byteOffset": 13375704,
      "byteStride": 12,
      "name": "floatBufferViews",
      "target": 34962
    },
    {
      "buffer": 0,
      "byteLength": 7159728,
      "byteOffset": 24115296,
      "byteStride": 16,
      "name": "floatBufferViews",
      "target": 34962
    }
  ],
  "buffers": [
    {
      "byteLength": 31275024,
      "uri": "scene.bin"
    }
  ],
  "images": [
    {
      "uri": "textures/Scene_-_Root_baseColor.png"
    },
    {
      "uri": "textures/Scene_-_Root_metallicRoughness.png"
    },
    {
      "uri": "textures/Scene_-_Root_normal.png"
    }
  ],
  "materials": [
    {
      "doubleSided": true,
      "name": "Scene_-_Root",
      "normalTexture": {
        "index": 2
      },
      "pbrMetallicRoughness": {
        "baseColorTexture": {
          "index": 0
        },
        "metallicRoughnessTexture": {
          "index": 1
        }
      }
    }
  ],
  "meshes": [
    {
      "name": "Lamp_post__0",
      "primitives": [
        {
          "attributes": {
            "NORMAL": 1,
            "POSITION": 0,
            "TANGENT": 2,
            "TEXCOORD_0": 3
          },
          "indices": 4,
          "material": 0,
          "mode": 4
        }
      ]
    },
    {
      "name": "Lamp_post__0",
      "primitives": [
        {
          "attributes": {
            "NORMAL": 6,
            "POSITION": 5,
            "TANGENT": 7,
            "TEXCOORD_0": 8
          },
          "indices": 9,
          "material": 0,
          "mode": 4
        }
      ]
    },
    {
      "name": "Lamp_post__0",
      "primitives": [
        {
          "attributes": {
            "NORMAL": 11,
            "POSITION": 10,
            "TANGENT": 12,
            "TEXCOORD_0": 13
          },
          "indices": 14,
          "material": 0,
          "mode": 4
        }
      ]
    },
    {
      "name": "Lamp_post__0",
      "primitives": [
        {
          "attributes": {
            "NORMAL": 16,
            "POSITION": 15,
            "TANGENT": 17,
            "TEXCOORD_0": 18
          },
          "indices": 19,
          "material": 0,
          "mode": 4
        }
      ]
    },
    {
      "name": "Lamp_post__0",
      "primitives": [
        {
          "attributes": {
            "NORMAL": 21,
            "POSITION": 20,
            "TANGENT": 22,
            "TEXCOORD_0": 23
          },
          "indices": 24,
          "material": 0,
          "mode": 4
        }
      ]
    },
    {
      "name": "Lamp_post__0",
      "primitives": [
        {
          "attributes": {
            "NORMAL": 26,
            "POSITION": 25,
            "TANGENT": 27,
            "TEXCOORD_0": 28
          },
          "indices": 29,
          "material": 0,
          "mode": 4
        }
      ]
    },
    {
      "name": "Lamp_post__0",
      "primitives": [
        {
          "attributes": {
            "NORMAL": 31,
            "POSITION": 30,
            "TANGENT": 32,
            "TEXCOORD_0": 33
          },
          "indices": 34,
          "material": 0,
          "mode": 4
        }
      ]
    }
  ],
  "nodes": [
    {
      "children": [
        1
      ],
      "matrix": [
        1.0,
        0.0,
        0.0,
        0.0,
        0.0,
        2.220446049250313e-16,
        -1.0,
        0.0,
        0.0,
        1.0,
        2.220446049250313e-16,
        0.0,
        0.0,
        0.0,
        0.0,
        1.0
      ],
      "name": "Sketchfab_model"
    },
    {
      "children": [
        2
      ],
      "matrix": [
        0.009999999776482582,
        0.0,
        0.0,
        0.0,
        0.0,
        0.0,
        0.009999999776482582,
        0.0,
        0.0,
        -0.009999999776482582,
        0.0,
        0.0,
        0.0,
        0.0,
        0.0,
        1.0
      ],
      "name": "b9cc16a248294fe492af75a67d7df434.fbx"
    },
    {
      "children": [
        3,
        6,
        8
      ],
      "name": "RootNode"
    },
    {
      "children": [
        4
      ],
      "matrix": [
        -29.08647719990347,
        -5.518906457566863,
        -95.51711910171437,
        0.0,
        56.63930913109449,
        79.46723428563203,
        -21.83912397841966,
        0.0,
        77.11008775993375,
        -60.45246356562044,
        -19.98834696773717,
        0.0,
        407.6245422363281,
        590.38623046875,
        -100.54539489746094,
        1.0
      ],
      "name": "Light"
    },
    {
      "children": [
        5
      ],
      "matrix": [
        1.0,
        0.0,
        0.0,
        0.0,
        0.0,
        2.220446049250313e-16,
        1.0,
        0.0,
        0.0,
        -1.0,
        2.220446049250313e-16,
        0.0,
        0.0,
        0.0,
        0.0,
        1.0
      ],
      "name": "Object_4"
    },
    {
      "name": "Object_5"
    },
    {
      "children": [
        7
      ],
      "matrix": [
        -65.15581009765468,
        -44.527143038140764,
        -61.41704928909654,
        0.0,
        -32.40135466989878,
        89.5395708958271,
        -30.542085476036902,
        0.0,
        68.59207001076176,
        1.2755314797120858e-05,
        -72.76761921184276,
        0.0,
        735.88916015625,
        495.8309326171875,
        692.5791015625,
        1.0
      ],
      "name": "Camera"
    },
    {
      "name": "Object_7"
    },
    {
      "children": [
        9,
        10,
        11,
        12,
        13,
        14,
        15
      ],
      "matrix": [
        156.42300415039063,
        0.0,
        0.0,
        0.0,
        -0.0,
        -2.5484542108692906e-05,
        -156.42300415038855,
        0.0,
        0.0,
        156.42300415038855,
        -2.5484542108692906e-05,
        0.0,
        -416.7424621582031,
        228.07786560058594,
        621.4674072265625,
        1.0
      ],
      "name": "Lamp_post"
    },
    {
      "mesh": 0,
      "name": "Lamp_post__0"
    },
    {
      "mesh": 1,
      "name": "Lamp_post__0"
    },
    {
      "mesh": 2,
      "name": "Lamp_post__0"
    },
    {
      "mesh": 3,
      "name": "Lamp_post__0"
    },
    {
      "mesh": 4,
      "name": "Lamp_post__0"
    },
    {
      "mesh": 5,
      "name": "Lamp_post__0"
    },
    {
      "mesh": 6,
      "name": "Lamp_post__0"
    }
  ],
  "samplers": [
    {
      "magFilter": 9729,
      "minFilter": 9987,
      "wrapS": 10497,
      "wrapT": 10497
    }
  ],
  "scene": 0,
  "scenes": [
    {
      "name": "Sketchfab_Scene",
      "nodes": [
        0
      ]
    }
  ],
  "textures": [
    {
      "sampler": 0,
      "source": 0
    },
    {
      "sampler": 0,
      "source": 1
    },
    {
      "sampler": 0,
      "source": 2
    }
  ]
}
