{
  "accessors": [
    {
      "bufferView": 2,
      "componentType": 5126,
      "count": 6912,
      "max": [
        2.8112857341766357,
        0.5000004768371582,
        3.5265982151031494
      ],
      "min": [
        -7.695967674255371,
        -0.5000011920928955,
        -6.845310211181641
      ],
      "type": "VEC3"
    },
    {
      "bufferView": 2,
      "byteOffset": 82944,
      "componentType": 5126,
      "count": 6912,
      "max": [
        1.0,
        5.457578708956135e-07,
        1.0
      ],
      "min": [
        -1.41867940328666e-06,
        -1.0915146049228497e-06,
        -1.0915149459833628e-06
      ],
      "type": "VEC3"
    },
    {
      "bufferView": 1,
      "componentType": 5126,
      "count": 6912,
      "max": [
        1.0,
        1.0
      ],
      "min": [
        0.0,
        0.0
      ],
      "type": "VEC2"
    },
    {
      "bufferView": 0,
      "componentType": 5125,
      "count": 10368,
      "type": "SCALAR"
    }
  ],
  "asset": {
    "extras": {
      "author": "Somersby (https://sketchfab.com/Somersby)",
      "license": "CC-BY-NC-4.0 (http://creativecommons.org/licenses/by-nc/4.0/)",
      "source": "https://sketchfab.com/3d-models/green-field-106c2c58f6d743c7897e327a9152ea54",
      "title": "Green Field"
    },
    "generator": "Sketchfab-12.65.0",
    "version": "2.0"
  },
  "bufferViews": [
    {
      "buffer": 0,
      "byteLength": 41472,
      "name": "floatBufferViews",
      "target": 34963
    },
    {
      "buffer": 0,
      "byteLength": 55296,
      "byteOffset": 41472,
      "byteStride": 8,
      "name": "floatBufferViews",
      "target": 34962
    },
    {
      "buffer": 0,
      "byteLength": 165888,
      "byteOffset": 96768,
      "byteStride": 12,
      "name": "floatBufferViews",
      "target": 34962
    }
  ],
  "buffers": [
    {
      "byteLength": 262656,
      "uri": "scene.bin"
    }
  ],
  "images": [
    {
      "uri": "textures/78f67a44e13965ae3008bbb284401925_baseColor.png"
    }
  ],
  "materials": [
    {
      "alphaCutoff": 0.6,
      "alphaMode": "MASK",
      "doubleSided": true,
      "name": "78f67a44e13965ae3008bbb284401925",
      "pbrMetallicRoughness": {
        "baseColorTexture": {
          "index": 0
        },
        "metallicFactor": 0.0
      }
    }
  ],
  "meshes": [
    {
      "name": "78f67a44e13965ae3008bbb284401925.000_78f67a44e13965ae3008bbb284401925_0",
      "primitives": [
        {
          "attributes": {
            "NORMAL": 1,
            "POSITION": 0,
            "TEXCOORD_0": 2
          },
          "indices": 3,
          "material": 0,
          "mode": 4
        }
      ]
    }
  ],
  "nodes": [
    {
      "children": [
        1
      ],
      "matrix": [
        0.010737674310803413,
        0.0,
        0.0,
        0.0,
        0.0,
        2.3842426501560018e-18,
        -0.010737674310803413,
        0.0,
        0.0,
        0.010737674310803413,
        2.3842426501560018e-18,
        0.0,
        0.0,
        0.0,
        0.0,
        1.0
      ],
      "name": "Sketchfab_model"
    },
    {
      "children": [
        2
      ],
      "matrix": [
        1.0,
        0.0,
        0.0,
        0.0,
        0.0,
        0.0,
        1.0,
        0.0,
        0.0,
        -1.0,
        0.0,
        0.0,
        0.0,
        0.0,
        0.0,
        1.0
      ],
      "name": "FieldCC.fbx"
    },
    {
      "children": [
        3
      ],
      "name": "RootNode"
    },
    {
      "children": [
        4
      ],
      "matrix": [
        2.8581732474806005e-05,
        -3.642739915216874e-22,
        146.79341125488,
        0.0,
        1.7504953418992758e-06,
        146.79341125488278,
        -3.408340270043633e-13,
        0.0,
        -146.79341125488,
        1.750495341899309e-06,
        2.8581732474806005e-05,
        0.0,
        -217.14456176757813,
        51.46940231323242,
        335.6682434082031,
        1.0
      ],
      "name": "78f67a44e13965ae3008bbb284401925.000"
    },
    {
      "mesh": 0,
      "name": "78f67a44e13965ae3008bbb284401925.000_78f67a44e13965ae3008bbb284401925_0"
    }
  ],
  "samplers": [
    {
      "magFilter": 9729,
      "minFilter": 9987,
      "wrapS": 10497,
      "wrapT": 10497
    }
  ],
  "scene": 0,
  "scenes": [
    {
      "name": "Sketchfab_Scene",
      "nodes": [
        0
      ]
    }
  ],
  "textures": [
    {
      "sampler": 0,
      "source": 0
    }
  ]
}
