{
  "accessors": [
    {
      "bufferView": 2,
      "componentType": 5126,
      "count": 27114,
      "max": [
        1.674072265625,
        0.1655593365430832,
        11.454782485961914
      ],
      "min": [
        -1.6848571300506592,
        -27.15629005432129,
        -0.011828422546386719
      ],
      "type": "VEC3"
    },
    {
      "bufferView": 2,
      "byteOffset": 325368,
      "componentType": 5126,
      "count": 27114,
      "max": [
        1.0,
        1.0,
        1.0
      ],
      "min": [
        -1.0,
        -1.0,
        -1.0
      ],
      "type": "VEC3"
    },
    {
      "bufferView": 3,
      "componentType": 5126,
      "count": 27114,
      "max": [
        1.0,
        1.0,
        1.0,
        1.0
      ],
      "min": [
        -1.0,
        -1.0,
        -1.0,
        -1.0
      ],
      "type": "VEC4"
    },
    {
      "bufferView": 1,
      "componentType": 5126,
      "count": 27114,
      "max": [
        0.9878085851669312,
        0.8991739749908447
      ],
      "min": [
        0.01409855391830206,
        0.09887969493865967
      ],
      "type": "VEC2"
    },
    {
      "bufferView": 1,
      "byteOffset": 216912,
      "componentType": 5126,
      "count": 27114,
      "max": [
        0.9878085851669312,
        0.8991739749908447
      ],
      "min": [
        0.01409855391830206,
        0.09887969493865967
      ],
      "type": "VEC2"
    },
    {
      "bufferView": 1,
      "byteOffset": 433824,
      "componentType": 5126,
      "count": 27114,
      "max": [
        0.9878085851669312,
        0.8991739749908447
      ],
      "min": [
        0.01409855391830206,
        0.09887969493865967
      ],
      "type": "VEC2"
    },
    {
      "bufferView": 0,
      "componentType": 5125,
      "count": 120018,
      "type": "SCALAR"
    }
  ],
  "asset": {
    "extras": {
      "author": "tiedtke (https://sketchfab.com/tiedtke)",
      "license": "CC-BY-4.0 (http://creativecommons.org/licenses/by/4.0/)",
      "source": "https://sketchfab.com/3d-models/electrical-powerline-pole-free-asset-001a960897dd46c9a6a439e5fb1167f8",
      "title": "Electrical Powerline Pole (Free Asset)"
    },
    "generator": "Sketchfab-12.58.1",
    "version": "2.0"
  },
  "bufferViews": [
    {
      "buffer": 0,
      "byteLength": 480072,
      "name": "floatBufferViews",
      "target": 34963
    },
    {
      "buffer": 0,
      "byteLength": 650736,
      "byteOffset": 480072,
      "byteStride": 8,
      "name": "floatBufferViews",
      "target": 34962
    },
    {
      "buffer": 0,
      "byteLength": 650736,
      "byteOffset": 1130808,
      "byteStride": 12,
      "name": "floatBufferViews",
      "target": 34962
    },
    {
      "buffer": 0,
      "byteLength": 433824,
      "byteOffset": 1781544,
      "byteStride": 16,
      "name": "floatBufferViews",
      "target": 34962
    }
  ],
  "buffers": [
    {
      "byteLength": 2215368,
      "uri": "scene.bin"
    }
  ],
  "images": [
    {
      "uri": "textures/Electrical_Powerline_MAT_baseColor.png"
    },
    {
      "uri": "textures/Electrical_Powerline_MAT_metallicRoughness.png"
    },
    {
      "uri": "textures/Electrical_Powerline_MAT_normal.png"
    }
  ],
  "materials": [
    {
      "doubleSided": true,
      "name": "Electrical_Powerline_MAT",
      "normalTexture": {
        "index": 2
      },
      "pbrMetallicRoughness": {
        "baseColorTexture": {
          "index": 0
        },
        "metallicRoughnessTexture": {
          "index": 1
        }
      }
    }
  ],
  "meshes": [
    {
      "name": "SM_Electrical_Powerline_Electrical_Powerline_MAT_0",
      "primitives": [
        {
          "attributes": {
            "NORMAL": 1,
            "POSITION": 0,
            "TANGENT": 2,
            "TEXCOORD_0": 3,
            "TEXCOORD_1": 4,
            "TEXCOORD_2": 5
          },
          "indices": 6,
          "material": 0,
          "mode": 4
        }
      ]
    }
  ],
  "nodes": [
    {
      "children": [
        1
      ],
      "matrix": [
        1.0,
        0.0,
        0.0,
        0.0,
        0.0,
        2.220446049250313e-16,
        -1.0,
        0.0,
        0.0,
        1.0,
        2.220446049250313e-16,
        0.0,
        0.0,
        0.0,
        0.0,
        1.0
      ],
      "name": "Sketchfab_model"
    },
    {
      "children": [
        2
      ],
      "matrix": [
        0.009999999776482582,
        0.0,
        0.0,
        0.0,
        0.0,
        0.0,
        0.009999999776482582,
        0.0,
        0.0,
        -0.009999999776482582,
        0.0,
        0.0,
        0.0,
        0.0,
        0.0,
        1.0
      ],
      "name": "922a1c1961fa4659bcc9e03d59ca8c92.fbx"
    },
    {
      "children": [
        3
      ],
      "name": "RootNode"
    },
    {
      "children": [
        4
      ],
      "matrix": [
        100.0,
        0.0,
        0.0,
        0.0,
        0.0,
        -1.629206793918314e-05,
        -99.99999999999868,
        0.0,
        0.0,
        99.99999999999868,
        -1.629206793918314e-05,
        0.0,
        0.0,
        0.0,
        0.0,
        1.0
      ],
      "name": "SM_Electrical_Powerline"
    },
    {
      "mesh": 0,
      "name": "SM_Electrical_Powerline_Electrical_Powerline_MAT_0"
    }
  ],
  "samplers": [
    {
      "magFilter": 9729,
      "minFilter": 9987,
      "wrapS": 10497,
      "wrapT": 10497
    }
  ],
  "scene": 0,
  "scenes": [
    {
      "name": "Sketchfab_Scene",
      "nodes": [
        0
      ]
    }
  ],
  "textures": [
    {
      "sampler": 0,
      "source": 0
    },
    {
      "sampler": 0,
      "source": 1
    },
    {
      "sampler": 0,
      "source": 2
    }
  ]
}
