{
  "accessors": [
    {
      "bufferView": 2,
      "componentType": 5126,
      "count": 6534,
      "max": [
        2.0392909049987793,
        2.5408570766448975,
        8.416197776794434
      ],
      "min": [
        -1.3544659614562988,
        -3.6744449138641357,
        0.0
      ],
      "type": "VEC3"
    },
    {
      "bufferView": 2,
      "byteOffset": 78408,
      "componentType": 5126,
      "count": 6534,
      "max": [
        0.9998307824134827,
        0.9999017715454102,
        0.9975974559783936
      ],
      "min": [
        -0.9999977350234985,
        -0.9997843503952026,
        -0.9986400008201599
      ],
      "type": "VEC3"
    },
    {
      "bufferView": 1,
      "componentType": 5126,
      "count": 6534,
      "max": [
        1.0,
        1.0
      ],
      "min": [
        0.0,
        0.0
      ],
      "type": "VEC2"
    },
    {
      "bufferView": 0,
      "componentType": 5125,
      "count": 32388,
      "type": "SCALAR"
    },
    {
      "bufferView": 2,
      "byteOffset": 156816,
      "componentType": 5126,
      "count": 304,
      "max": [
        5.593355178833008,
        6.314509868621826,
        11.93696403503418
      ],
      "min": [
        -4.863330841064453,
        -6.5730791091918945,
        2.4526000022888184
      ],
      "type": "VEC3"
    },
    {
      "bufferView": 2,
      "byteOffset": 160464,
      "componentType": 5126,
      "count": 304,
      "max": [
        0.9095421433448792,
        0.9579112529754639,
        0.9833756685256958
      ],
      "min": [
        -0.9498621225357056,
        -0.9987130165100098,
        -0.000759999908041209
      ],
      "type": "VEC3"
    },
    {
      "bufferView": 1,
      "byteOffset": 52272,
      "componentType": 5126,
      "count": 304,
      "max": [
        1.0,
        1.0
      ],
      "min": [
        0.0,
        0.0
      ],
      "type": "VEC2"
    },
    {
      "bufferView": 0,
      "byteOffset": 129552,
      "componentType": 5125,
      "count": 456,
      "type": "SCALAR"
    },
    {
      "bufferView": 2,
      "byteOffset": 164112,
      "componentType": 5126,
      "count": 296,
      "max": [
        5.667500019073486,
        6.359695911407471,
        12.137407302856445
      ],
      "min": [
        -4.908740997314453,
        -6.78433084487915,
        2.1842799186706543
      ],
      "type": "VEC3"
    },
    {
      "bufferView": 2,
      "byteOffset": 167664,
      "componentType": 5126,
      "count": 296,
      "max": [
        0.890501856803894,
        0.9604380130767822,
        0.9927262663841248
      ],
      "min": [
        -0.951322615146637,
        -0.9166215658187866,
        0.15367794036865234
      ],
      "type": "VEC3"
    },
    {
      "bufferView": 1,
      "byteOffset": 54704,
      "componentType": 5126,
      "count": 296,
      "max": [
        1.0,
        1.0
      ],
      "min": [
        0.0,
        0.0
      ],
      "type": "VEC2"
    },
    {
      "bufferView": 0,
      "byteOffset": 131376,
      "componentType": 5125,
      "count": 444,
      "type": "SCALAR"
    },
    {
      "bufferView": 2,
      "byteOffset": 171216,
      "componentType": 5126,
      "count": 296,
      "max": [
        5.405447006225586,
        6.319965839385986,
        11.427172660827637
      ],
      "min": [
        -5.1198320388793945,
        -7.593021869659424,
        2.2000250816345215
      ],
      "type": "VEC3"
    },
    {
      "bufferView": 2,
      "byteOffset": 174768,
      "componentType": 5126,
      "count": 296,
      "max": [
        0.9294552206993103,
        0.9640966653823853,
        0.9970824718475342
      ],
      "min": [
        -0.9835101366043091,
        -0.9514527320861816,
        -0.009963001124560833
      ],
      "type": "VEC3"
    },
    {
      "bufferView": 1,
      "byteOffset": 57072,
      "componentType": 5126,
      "count": 296,
      "max": [
        1.0,
        1.0
      ],
      "min": [
        0.0,
        0.0
      ],
      "type": "VEC2"
    },
    {
      "bufferView": 0,
      "byteOffset": 133152,
      "componentType": 5125,
      "count": 444,
      "type": "SCALAR"
    },
    {
      "bufferView": 2,
      "byteOffset": 178320,
      "componentType": 5126,
      "count": 272,
      "max": [
        5.771084785461426,
        6.492395877838135,
        11.310032844543457
      ],
      "min": [
        -5.408331871032715,
        -7.32045316696167,
        1.9711459875106812
      ],
      "type": "VEC3"
    },
    {
      "bufferView": 2,
      "byteOffset": 181584,
      "componentType": 5126,
      "count": 272,
      "max": [
        0.9990867376327515,
        0.8235998749732971,
        0.9950336217880249
      ],
      "min": [
        -0.96799635887146,
        -0.882989227771759,
        0.040572989732027054
      ],
      "type": "VEC3"
    },
    {
      "bufferView": 1,
      "byteOffset": 59440,
      "componentType": 5126,
      "count": 272,
      "max": [
        1.0,
        1.0
      ],
      "min": [
        0.0,
        0.0
      ],
      "type": "VEC2"
    },
    {
      "bufferView": 0,
      "byteOffset": 134928,
      "componentType": 5125,
      "count": 408,
      "type": "SCALAR"
    },
    {
      "bufferView": 2,
      "byteOffset": 184848,
      "componentType": 5126,
      "count": 312,
      "max": [
        5.679238796234131,
        6.4916768074035645,
        11.297048568725586
      ],
      "min": [
        -5.44856595993042,
        -7.516239166259766,
        1.6917530298233032
      ],
      "type": "VEC3"
    },
    {
      "bufferView": 2,
      "byteOffset": 188592,
      "componentType": 5126,
      "count": 312,
      "max": [
        0.894978404045105,
        0.9381282329559326,
        0.9873683452606201
      ],
      "min": [
        -0.8831337690353394,
        -0.959949254989624,
        0.1307530552148819
      ],
      "type": "VEC3"
    },
    {
      "bufferView": 1,
      "byteOffset": 61616,
      "componentType": 5126,
      "count": 312,
      "max": [
        1.0,
        1.0
      ],
      "min": [
        0.0,
        0.0
      ],
      "type": "VEC2"
    },
    {
      "bufferView": 0,
      "byteOffset": 136560,
      "componentType": 5125,
      "count": 468,
      "type": "SCALAR"
    },
    {
      "bufferView": 2,
      "byteOffset": 192336,
      "componentType": 5126,
      "count": 236,
      "max": [
        5.276255130767822,
        6.715096950531006,
        10.981444358825684
      ],
      "min": [
        -5.130878925323486,
        -7.0121917724609375,
        2.159492015838623
      ],
      "type": "VEC3"
    },
    {
      "bufferView": 2,
      "byteOffset": 195168,
      "componentType": 5126,
      "count": 236,
      "max": [
        0.9428396224975586,
        0.8569931387901306,
        0.9930917620658875
      ],
      "min": [
        -0.9647092223167419,
        -0.9197794198989868,
        0.17264993488788605
      ],
      "type": "VEC3"
    },
    {
      "bufferView": 1,
      "byteOffset": 64112,
      "componentType": 5126,
      "count": 236,
      "max": [
        1.0,
        1.0
      ],
      "min": [
        0.0,
        0.0
      ],
      "type": "VEC2"
    },
    {
      "bufferView": 0,
      "byteOffset": 138432,
      "componentType": 5125,
      "count": 354,
      "type": "SCALAR"
    }
  ],
  "asset": {
    "extras": {
      "author": "Sereib (https://sketchfab.com/Sereib)",
      "license": "CC-BY-4.0 (http://creativecommons.org/licenses/by/4.0/)",
      "source": "https://sketchfab.com/3d-models/japanese-cherry-tree-medium-poly-e0306a4402b44fa08f55aa58518dcb9c",
      "title": "Japanese Cherry Tree (medium-Poly)"
    },
    "generator": "Sketchfab-16.8.0",
    "version": "2.0"
  },
  "bufferViews": [
    {
      "buffer": 0,
      "byteLength": 139848,
      "name": "floatBufferViews",
      "target": 34963
    },
    {
      "buffer": 0,
      "byteLength": 66000,
      "byteOffset": 139848,
      "byteStride": 8,
      "name": "floatBufferViews",
      "target": 34962
    },
    {
      "buffer": 0,
      "byteLength": 198000,
      "byteOffset": 205848,
      "byteStride": 12,
      "name": "floatBufferViews",
      "target": 34962
    }
  ],
  "buffers": [
    {
      "byteLength": 403848,
      "uri": "scene.bin"
    }
  ],
  "images": [
    {
      "uri": "textures/nature_bark_cherry_02_l_0001.jpg_baseColor.jpeg"
    },
    {
      "uri": "textures/nature_blossoms_prunusserrulata_01_l_0001.jpg_baseColor.png"
    },
    {
      "uri": "textures/nature_blossoms_prunusserrulata_01_l_0002.jpg_baseColor.png"
    },
    {
      "uri": "textures/nature_blossoms_prunusserrulata_01_l_0003.jpg_baseColor.png"
    },
    {
      "uri": "textures/nature_blossoms_prunusserrulata_01_l_0004.jpg_baseColor.png"
    },
    {
      "uri": "textures/nature_blossoms_prunusserrulata_01_l_0005.jpg_baseColor.png"
    },
    {
      "uri": "textures/nature_blossoms_prunusserrulata_01_l_0006.jpg_baseColor.png"
    }
  ],
  "materials": [
    {
      "doubleSided": true,
      "name": "nature_bark_cherry_02_l_0001.jpg",
      "pbrMetallicRoughness": {
        "baseColorTexture": {
          "index": 0
        },
        "metallicFactor": 0.0,
        "roughnessFactor": 0.9
      }
    },
    {
      "alphaMode": "BLEND",
      "doubleSided": true,
      "name": "nature_blossoms_prunusserrulata_01_l_0001.jpg",
      "pbrMetallicRoughness": {
        "baseColorTexture": {
          "index": 1
        },
        "metallicFactor": 0.0,
        "roughnessFactor": 0.9
      }
    },
    {
      "alphaMode": "BLEND",
      "doubleSided": true,
      "name": "nature_blossoms_prunusserrulata_01_l_0002.jpg",
      "pbrMetallicRoughness": {
        "baseColorTexture": {
          "index": 2
        },
        "metallicFactor": 0.0,
        "roughnessFactor": 0.9
      }
    },
    {
      "alphaMode": "BLEND",
      "doubleSided": true,
      "name": "nature_blossoms_prunusserrulata_01_l_0003.jpg",
      "pbrMetallicRoughness": {
        "baseColorTexture": {
          "index": 3
        },
        "metallicFactor": 0.0,
        "roughnessFactor": 0.9
      }
    },
    {
      "alphaMode": "BLEND",
      "doubleSided": true,
      "name": "nature_blossoms_prunusserrulata_01_l_0004.jpg",
      "pbrMetallicRoughness": {
        "baseColorTexture": {
          "index": 4
        },
        "metallicFactor": 0.0,
        "roughnessFactor": 0.9
      }
    },
    {
      "alphaMode": "BLEND",
      "doubleSided": true,
      "name": "nature_blossoms_prunusserrulata_01_l_0005.jpg",
      "pbrMetallicRoughness": {
        "baseColorTexture": {
          "index": 5
        },
        "metallicFactor": 0.0,
        "roughnessFactor": 0.9
      }
    },
    {
      "alphaMode": "BLEND",
      "doubleSided": true,
      "name": "nature_blossoms_prunusserrulata_01_l_0006.jpg",
      "pbrMetallicRoughness": {
        "baseColorTexture": {
          "index": 6
        },
        "metallicFactor": 0.0,
        "roughnessFactor": 0.9
      }
    }
  ],
  "meshes": [
    {
      "name": "Object_0",
      "primitives": [
        {
          "attributes": {
            "NORMAL": 1,
            "POSITION": 0,
            "TEXCOORD_0": 2
          },
          "indices": 3,
          "material": 0,
          "mode": 4
        }
      ]
    },
    {
      "name": "Object_1",
      "primitives": [
        {
          "attributes": {
            "NORMAL": 5,
            "POSITION": 4,
            "TEXCOORD_0": 6
          },
          "indices": 7,
          "material": 1,
          "mode": 4
        }
      ]
    },
    {
      "name": "Object_2",
      "primitives": [
        {
          "attributes": {
            "NORMAL": 9,
            "POSITION": 8,
            "TEXCOORD_0": 10
          },
          "indices": 11,
          "material": 2,
          "mode": 4
        }
      ]
    },
    {
      "name": "Object_3",
      "primitives": [
        {
          "attributes": {
            "NORMAL": 13,
            "POSITION": 12,
            "TEXCOORD_0": 14
          },
          "indices": 15,
          "material": 3,
          "mode": 4
        }
      ]
    },
    {
      "name": "Object_4",
      "primitives": [
        {
          "attributes": {
            "NORMAL": 17,
            "POSITION": 16,
            "TEXCOORD_0": 18
          },
          "indices": 19,
          "material": 4,
          "mode": 4
        }
      ]
    },
    {
      "name": "Object_5",
      "primitives": [
        {
          "attributes": {
            "NORMAL": 21,
            "POSITION": 20,
            "TEXCOORD_0": 22
          },
          "indices": 23,
          "material": 5,
          "mode": 4
        }
      ]
    },
    {
      "name": "Object_6",
      "primitives": [
        {
          "attributes": {
            "NORMAL": 25,
            "POSITION": 24,
            "TEXCOORD_0": 26
          },
          "indices": 27,
          "material": 6,
          "mode": 4
        }
      ]
    }
  ],
  "nodes": [
    {
      "children": [
        1
      ],
      "matrix": [
        1.0,
        0.0,
        0.0,
        0.0,
        0.0,
        2.220446049250313e-16,
        -1.0,
        0.0,
        0.0,
        1.0,
        2.220446049250313e-16,
        0.0,
        0.0,
        0.0,
        0.0,
        1.0
      ],
      "name": "Sketchfab_model"
    },
    {
      "children": [
        2,
        3,
        4,
        5,
        6,
        7,
        8
      ],
      "name": "prunusserrulata.obj.cleaner.materialmerger.gles"
    },
    {
      "mesh": 0,
      "name": "Object_2"
    },
    {
      "mesh": 1,
      "name": "Object_3"
    },
    {
      "mesh": 2,
      "name": "Object_4"
    },
    {
      "mesh": 3,
      "name": "Object_5"
    },
    {
      "mesh": 4,
      "name": "Object_6"
    },
    {
      "mesh": 5,
      "name": "Object_7"
    },
    {
      "mesh": 6,
      "name": "Object_8"
    }
  ],
  "samplers": [
    {
      "magFilter": 9729,
      "minFilter": 9987,
      "wrapS": 10497,
      "wrapT": 10497
    }
  ],
  "scene": 0,
  "scenes": [
    {
      "name": "Sketchfab_Scene",
      "nodes": [
        0
      ]
    }
  ],
  "textures": [
    {
      "sampler": 0,
      "source": 0
    },
    {
      "sampler": 0,
      "source": 1
    },
    {
      "sampler": 0,
      "source": 2
    },
    {
      "sampler": 0,
      "source": 3
    },
    {
      "sampler": 0,
      "source": 4
    },
    {
      "sampler": 0,
      "source": 5
    },
    {
      "sampler": 0,
      "source": 6
    }
  ]
}
