{
  "accessors": [
    {
      "bufferView": 2,
      "componentType": 5126,
      "count": 65532,
      "max": [
        3.5934839248657227,
        2.717529773712158,
        0.2867394685745239
      ],
      "min": [
        -3.5640201568603516,
        -2.719425678253174,
        -0.10028447955846786
      ],
      "type": "VEC3"
    },
    {
      "bufferView": 2,
      "byteOffset": 786384,
      "componentType": 5126,
      "count": 65532,
      "max": [
        0.6497070789337158,
        0.6968257427215576,
        1.0
      ],
      "min": [
        -0.6300094723701477,
        -0.596913754940033,
        0.6771517992019653
      ],
      "type": "VEC3"
    },
    {
      "bufferView": 1,
      "componentType": 5126,
      "count": 65532,
      "max": [
        1.0000001192092896,
        1.0000001192092896
      ],
      "min": [
        0.0,
        0.0
      ],
      "type": "VEC2"
    },
    {
      "bufferView": 0,
      "componentType": 5125,
      "count": 387015,
      "type": "SCALAR"
    },
    {
      "bufferView": 2,
      "byteOffset": 1572768,
      "componentType": 5126,
      "count": 1102,
      "max": [
        0.025980234146118164,
        2.717529535293579,
        0.02033626288175583
      ],
      "min": [
        -3.535973072052002,
        0.1775292158126831,
        -0.10028446465730667
      ],
      "type": "VEC3"
    },
    {
      "bufferView": 2,
      "byteOffset": 1585992,
      "componentType": 5126,
      "count": 1102,
      "max": [
        0.31339895725250244,
        0.1410340517759323,
        1.0
      ],
      "min": [
        -0.13012592494487762,
        -0.36571091413497925,
        0.9296163320541382
      ],
      "type": "VEC3"
    },
    {
      "bufferView": 1,
      "byteOffset": 524256,
      "componentType": 5126,
      "count": 1102,
      "max": [
        1.0000001192092896,
        1.0000001192092896
      ],
      "min": [
        0.007812495343387127,
        0.0
      ],
      "type": "VEC2"
    },
    {
      "bufferView": 0,
      "byteOffset": 1548060,
      "componentType": 5125,
      "count": 6201,
      "type": "SCALAR"
    },
    {
      "bufferView": 2,
      "byteOffset": 1599216,
      "componentType": 5126,
      "count": 516,
      "max": [
        3.5934839248657227,
        0.1775294542312622,
        -0.09945238381624222
      ],
      "min": [
        -3.5640201568603516,
        -0.17942535877227783,
        -0.10028447955846786
      ],
      "type": "VEC3"
    },
    {
      "bufferView": 2,
      "byteOffset": 1605408,
      "componentType": 5126,
      "count": 516,
      "max": [
        0.0009234537137672305,
        0.000327752873999998,
        1.0
      ],
      "min": [
        -0.0010019291657954454,
        -0.009722628630697727,
        0.9999527335166931
      ],
      "type": "VEC3"
    },
    {
      "bufferView": 1,
      "byteOffset": 533072,
      "componentType": 5126,
      "count": 516,
      "max": [
        5.724332809448242,
        1.0362427234649658
      ],
      "min": [
        -4.847935676574707,
        -0.007326066493988037
      ],
      "type": "VEC2"
    },
    {
      "bufferView": 0,
      "byteOffset": 1572864,
      "componentType": 5125,
      "count": 1536,
      "type": "SCALAR"
    }
  ],
  "asset": {
    "extras": {
      "author": "PropShop (https://sketchfab.com/syedabbas0815)",
      "license": "CC-BY-4.0 (http://creativecommons.org/licenses/by/4.0/)",
      "source": "https://sketchfab.com/3d-models/terrain-8e2dbf6956c54422afada2637830e94e",
      "title": "Terrain"
    },
    "generator": "Sketchfab-15.53.0",
    "version": "2.0"
  },
  "bufferViews": [
    {
      "buffer": 0,
      "byteLength": 1579008,
      "name": "floatBufferViews",
      "target": 34963
    },
    {
      "buffer": 0,
      "byteLength": 537200,
      "byteOffset": 1579008,
      "byteStride": 8,
      "name": "floatBufferViews",
      "target": 34962
    },
    {
      "buffer": 0,
      "byteLength": 1611600,
      "byteOffset": 2116208,
      "byteStride": 12,
      "name": "floatBufferViews",
      "target": 34962
    }
  ],
  "buffers": [
    {
      "byteLength": 3727808,
      "uri": "scene.bin"
    }
  ],
  "images": [
    {
      "uri": "textures/ant01.008_NormalOnly_baseColor.jpeg"
    },
    {
      "uri": "textures/Material.004_baseColor.jpeg"
    }
  ],
  "materials": [
    {
      "doubleSided": true,
      "name": "ant01.008_NormalOnly",
      "pbrMetallicRoughness": {
        "baseColorTexture": {
          "index": 0
        },
        "metallicFactor": 0.0
      }
    },
    {
      "doubleSided": true,
      "name": "Material.004",
      "pbrMetallicRoughness": {
        "baseColorTexture": {
          "index": 1
        },
        "metallicFactor": 0.0,
        "roughnessFactor": 0.8211145618000169
      }
    }
  ],
  "meshes": [
    {
      "name": "ant01.001_ant01.008_NormalOnly_0",
      "primitives": [
        {
          "attributes": {
            "NORMAL": 1,
            "POSITION": 0,
            "TEXCOORD_0": 2
          },
          "indices": 3,
          "material": 0,
          "mode": 4
        }
      ]
    },
    {
      "name": "ant01.001_ant01.008_NormalOnly_0",
      "primitives": [
        {
          "attributes": {
            "NORMAL": 5,
            "POSITION": 4,
            "TEXCOORD_0": 6
          },
          "indices": 7,
          "material": 0,
          "mode": 4
        }
      ]
    },
    {
      "name": "ant01.001_Material.004_0",
      "primitives": [
        {
          "attributes": {
            "NORMAL": 9,
            "POSITION": 8,
            "TEXCOORD_0": 10
          },
          "indices": 11,
          "material": 1,
          "mode": 4
        }
      ]
    }
  ],
  "nodes": [
    {
      "children": [
        1
      ],
      "matrix": [
        1.0,
        0.0,
        0.0,
        0.0,
        0.0,
        2.220446049250313e-16,
        -1.0,
        0.0,
        0.0,
        1.0,
        2.220446049250313e-16,
        0.0,
        0.0,
        0.0,
        0.0,
        1.0
      ],
      "name": "Sketchfab_model"
    },
    {
      "children": [
        2
      ],
      "matrix": [
        0.009999999776482582,
        0.0,
        0.0,
        0.0,
        0.0,
        0.0,
        0.009999999776482582,
        0.0,
        0.0,
        -0.009999999776482582,
        0.0,
        0.0,
        0.0,
        0.0,
        0.0,
        1.0
      ],
      "name": "terrain txa.fbx"
    },
    {
      "children": [
        3
      ],
      "name": "RootNode"
    },
    {
      "children": [
        4,
        5,
        6
      ],
      "matrix": [
        100.0,
        0.0,
        0.0,
        0.0,
        0.0,
        -1.629206793918314e-05,
        -99.99999999999868,
        0.0,
        0.0,
        99.99999999999868,
        -1.629206793918314e-05,
        0.0,
        176.90199279785156,
        10.028446197509766,
        144.75294494628906,
        1.0
      ],
      "name": "ant01.001"
    },
    {
      "mesh": 0,
      "name": "ant01.001_ant01.008_NormalOnly_0"
    },
    {
      "mesh": 1,
      "name": "ant01.001_ant01.008_NormalOnly_0"
    },
    {
      "mesh": 2,
      "name": "ant01.001_Material.004_0"
    }
  ],
  "samplers": [
    {
      "magFilter": 9729,
      "minFilter": 9987,
      "wrapS": 10497,
      "wrapT": 10497
    }
  ],
  "scene": 0,
  "scenes": [
    {
      "name": "Sketchfab_Scene",
      "nodes": [
        0
      ]
    }
  ],
  "textures": [
    {
      "sampler": 0,
      "source": 0
    },
    {
      "sampler": 0,
      "source": 1
    }
  ]
}
