# Blender 4.1.0
# www.blender.org
mtllib put.mtl
o Highway
v 5.692141 0.300343 2.210290
v 5.692141 0.300344 12.005408
v -8.300885 0.300344 12.005408
v -8.300885 0.300343 2.210290
v -8.300885 0.300344 7.107849
v -8.300885 0.300344 7.107849
v -22.293911 0.300344 7.107849
v -22.293911 0.300344 7.107849
v 18.985516 0.300344 7.107849
v 18.985516 0.300344 7.107849
v 4.992490 0.300344 7.107849
v 4.992490 0.300344 7.107849
vn -0.0000 1.0000 -0.0000
vn -0.0000 -0.0000 1.0000
vt 1.000000 1.000000
vt 0.000000 1.000000
vt 0.000000 0.000000
vt 1.000000 0.000000
s 0
usemtl Material.001
f 3/1/1 2/2/1 1/3/1
f 3/1/1 1/3/1 4/4/1
f 7/1/2 6/2/2 5/3/2
f 7/1/2 5/3/2 8/4/2
f 11/1/2 10/2/2 9/3/2
f 11/1/2 9/3/2 12/4/2
